<?xml version="1.0" encoding="iso-8859-1"?>
<!-- Generator: Adobe Illustrator 17.1.0, SVG Export Plug-In . SVG Version: 6.00 Build 0)  -->
<!DOCTYPE svg PUBLIC "-//W3C//DTD SVG 1.1//EN" "http://www.w3.org/Graphics/SVG/1.1/DTD/svg11.dtd">
<svg version="1.1" id="Capa_1" xmlns="http://www.w3.org/2000/svg" xmlns:xlink="http://www.w3.org/1999/xlink" x="0px" y="0px"
	 viewBox="0 0 420.725 420.725" style="enable-background:new 0 0 420.725 420.725;" xml:space="preserve">
<path d="M210.164,151.214c-32.691,0-59.288,26.597-59.288,59.289c0,32.691,26.597,59.288,59.288,59.288
	c32.693,0,59.291-26.597,59.291-59.288C269.455,177.81,242.858,151.214,210.164,151.214z M210.164,251.791
	c-22.767,0-41.288-18.521-41.288-41.288s18.521-41.289,41.288-41.289c22.768,0,41.291,18.522,41.291,41.289
	S232.932,251.791,210.164,251.791z M207.24,400.762c-0.298,4.77-4.259,8.439-8.974,8.439c-0.188,0-0.378-0.006-0.569-0.018
	c-48.439-3.021-94.036-23.604-128.39-57.954C44.98,326.9,27.559,296.932,18.39,264.309l-0.694,2.593
	c-1.287,4.802-6.217,7.65-11.023,6.363c-4.801-1.287-7.649-6.222-6.363-11.023l11.282-42.093c0.149-0.614,0.362-1.205,0.631-1.765
	c0.57-1.191,1.385-2.216,2.363-3.027c1.02-0.848,2.23-1.477,3.567-1.81c0.991-0.249,2.032-0.332,3.085-0.224
	c1.073,0.106,2.096,0.403,3.03,0.857c1.181,0.572,2.197,1.385,3.003,2.359c0.839,1.012,1.462,2.214,1.795,3.538
	c0.151,0.598,0.242,1.215,0.267,1.842c2.792,43.983,21.504,85.38,52.703,116.582c31.249,31.246,72.724,49.969,116.783,52.717
	C203.78,391.528,207.55,395.801,207.24,400.762z M420.416,158.11l-11.331,42.291c-0.453,1.69-1.357,3.139-2.55,4.249
	c-1.51,1.588-3.601,2.632-5.96,2.779c-0.19,0.012-0.381,0.018-0.569,0.018c-4.715,0-8.676-3.669-8.974-8.439
	c-2.749-44.065-21.471-85.54-52.718-116.784c-31.248-31.249-72.722-49.971-116.783-52.718c-4.961-0.309-8.732-4.581-8.423-9.542
	c0.309-4.961,4.603-8.725,9.542-8.423c48.443,3.02,94.04,23.602,128.392,57.954c24.453,24.451,41.928,54.601,51.059,87.422
	l0.929-3.465c1.286-4.801,6.223-7.65,11.022-6.364C418.854,148.374,421.702,153.309,420.416,158.11z M342.286,134.084
	c-9.061-15.695-23.963-31.483-36.432-24.936l-23.568,10.532c-9.022-7.186-18.956-12.925-29.646-17.126l-2.671-25.741
	c-0.641-14.019-21.735-19.012-39.805-19.012c-18.125,0-39.25,5.012-39.809,19.083l-2.666,25.669
	c-10.687,4.202-20.62,9.94-29.645,17.126l-23.605-10.55c-12.471-6.495-27.354,9.293-36.399,24.953
	c-9.061,15.698-15.281,36.5-3.376,44.018l20.823,15.086c-0.855,5.716-1.287,11.513-1.287,17.302c0,5.708,0.421,11.43,1.255,17.075
	l-20.79,15.063c-11.901,7.517-5.684,28.318,3.376,44.02c9.039,15.651,23.916,31.431,36.383,24.958l23.419-10.464
	c9.083,7.267,19.093,13.062,29.875,17.296l2.638,25.406c0.559,14.071,21.684,19.082,39.809,19.082
	c18.069,0,39.164-4.993,39.805-19.012l2.643-25.478c10.783-4.235,20.795-10.031,29.877-17.298l23.396,10.454
	c3.693,1.901,10.915,3.326,20.904-5.334c5.39-4.673,10.895-11.639,15.498-19.613c9.032-15.644,15.256-36.401,3.446-43.972
	l-20.857-15.11c0.833-5.641,1.254-11.36,1.254-17.073c0-5.794-0.432-11.591-1.287-17.3l20.901-15.141
	C357.539,170.472,351.317,149.722,342.286,134.084z M309.727,181.911c-2.856,2.069-4.241,5.616-3.542,9.073
	c1.29,6.38,1.944,12.941,1.944,19.504c0,6.486-0.641,12.981-1.904,19.305c-0.69,3.451,0.695,6.987,3.545,9.052l24.47,17.728
	c0.013,2.871-1.48,10.574-7.541,21.071c-6.058,10.492-11.978,15.637-14.474,17.065l-27.541-12.307
	c-3.225-1.441-6.993-0.862-9.636,1.477c-9.896,8.756-21.225,15.315-33.673,19.497c-3.344,1.122-5.723,4.095-6.087,7.603
	l-3.105,29.941c-2.482,1.447-9.899,4.004-22.019,4.004c-12.113,0-19.529-2.555-22.016-4.002l-3.107-29.943
	c-0.364-3.509-2.744-6.48-6.087-7.604c-12.446-4.179-23.775-10.738-33.672-19.493c-2.645-2.34-6.41-2.917-9.636-1.477
	l-27.539,12.306c-2.495-1.427-8.417-6.571-14.478-17.064c-6.055-10.494-7.552-18.192-7.542-21.068l24.473-17.73
	c2.85-2.064,4.234-5.6,3.546-9.05c-1.265-6.335-1.906-12.831-1.906-19.31c0-6.554,0.654-13.117,1.944-19.51
	c0.697-3.455-0.688-7-3.542-9.068l-24.515-17.761c-0.011-2.876,1.485-10.575,7.541-21.066c6.061-10.495,11.982-15.64,14.478-17.067
	l27.729,12.392c3.216,1.438,6.974,0.865,9.618-1.461c9.855-8.675,21.118-15.181,33.477-19.337c3.341-1.123,5.719-4.095,6.083-7.601
	l3.136-30.205c2.486-1.447,9.902-4.002,22.016-4.002c12.12,0,19.537,2.557,22.019,4.004l3.134,30.204
	c0.364,3.508,2.742,6.479,6.085,7.603c12.361,4.154,23.623,10.659,33.473,19.334c2.644,2.329,6.402,2.9,9.62,1.463l27.729-12.392
	c2.496,1.429,8.417,6.574,14.475,17.066c6.062,10.498,7.555,18.201,7.541,21.071L309.727,181.911z"/>
<g>
</g>
<g>
</g>
<g>
</g>
<g>
</g>
<g>
</g>
<g>
</g>
<g>
</g>
<g>
</g>
<g>
</g>
<g>
</g>
<g>
</g>
<g>
</g>
<g>
</g>
<g>
</g>
<g>
</g>
</svg>
